<svg id="visual" viewBox="0 0 960 540" width="960" height="540" xmlns="http://www.w3.org/2000/svg" xmlns:xlink="http://www.w3.org/1999/xlink" version="1.1"><rect x="0" y="0" width="960" height="540" fill="#FFFFFF"></rect><defs><linearGradient id="grad1_0" x1="43.8%" y1="100%" x2="100%" y2="0%"><stop offset="14.444444444444446%" stop-color="#ffffff" stop-opacity="1"></stop><stop offset="85.55555555555554%" stop-color="#ffffff" stop-opacity="1"></stop></linearGradient></defs><defs><linearGradient id="grad2_0" x1="0%" y1="100%" x2="56.3%" y2="0%"><stop offset="14.444444444444446%" stop-color="#ffffff" stop-opacity="1"></stop><stop offset="85.55555555555554%" stop-color="#ffffff" stop-opacity="1"></stop></linearGradient></defs><g transform="translate(960, 540)"><path d="M-486 0C-481.8 -66.4 -477.7 -132.9 -449 -186C-420.3 -239.1 -367.1 -279 -319.6 -319.6C-272.1 -360.3 -230.3 -401.7 -177.9 -429.6C-125.6 -457.5 -62.8 -471.7 0 -486L0 0Z" fill="#f8b195"></path></g><g transform="translate(0, 0)"><path d="M486 0C485.4 68.6 484.8 137.3 449 186C413.2 234.7 342.1 263.5 287.8 287.8C233.5 312 195.9 331.7 150.8 364C105.6 396.3 52.8 441.1 0 486L0 0Z" fill="#f8b195"></path></g></svg>