<svg id="visual" viewBox="0 0 900 600" width="900" height="600" xmlns="http://www.w3.org/2000/svg" xmlns:xlink="http://www.w3.org/1999/xlink" version="1.1"><path d="M380 0L384.8 16.7C389.7 33.3 399.3 66.7 392.2 100C385 133.3 361 166.7 361.3 200C361.7 233.3 386.3 266.7 392.8 300C399.3 333.3 387.7 366.7 373.8 400C360 433.3 344 466.7 350.7 500C357.3 533.3 386.7 566.7 401.3 583.3L416 600L0 600L0 583.3C0 566.7 0 533.3 0 500C0 466.7 0 433.3 0 400C0 366.7 0 333.3 0 300C0 266.7 0 233.3 0 200C0 166.7 0 133.3 0 100C0 66.7 0 33.3 0 16.7L0 0Z" fill="#f5b79b"></path><path d="M259 0L261.3 16.7C263.7 33.3 268.3 66.7 281 100C293.7 133.3 314.3 166.7 311.2 200C308 233.3 281 266.7 270.7 300C260.3 333.3 266.7 366.7 266 400C265.3 433.3 257.7 466.7 263.3 500C269 533.3 288 566.7 297.5 583.3L307 600L0 600L0 583.3C0 566.7 0 533.3 0 500C0 466.7 0 433.3 0 400C0 366.7 0 333.3 0 300C0 266.7 0 233.3 0 200C0 166.7 0 133.3 0 100C0 66.7 0 33.3 0 16.7L0 0Z" fill="#f7a480"></path><path d="M207 0L213.3 16.7C219.7 33.3 232.3 66.7 245.2 100C258 133.3 271 166.7 261.3 200C251.7 233.3 219.3 266.7 210.7 300C202 333.3 217 366.7 225.2 400C233.3 433.3 234.7 466.7 242.3 500C250 533.3 264 566.7 271 583.3L278 600L0 600L0 583.3C0 566.7 0 533.3 0 500C0 466.7 0 433.3 0 400C0 366.7 0 333.3 0 300C0 266.7 0 233.3 0 200C0 166.7 0 133.3 0 100C0 66.7 0 33.3 0 16.7L0 0Z" fill="#f79066"></path><path d="M129 0L132.8 16.7C136.7 33.3 144.3 66.7 147.7 100C151 133.3 150 166.7 145.2 200C140.3 233.3 131.7 266.7 135.2 300C138.7 333.3 154.3 366.7 160.5 400C166.7 433.3 163.3 466.7 157.5 500C151.7 533.3 143.3 566.7 139.2 583.3L135 600L0 600L0 583.3C0 566.7 0 533.3 0 500C0 466.7 0 433.3 0 400C0 366.7 0 333.3 0 300C0 266.7 0 233.3 0 200C0 166.7 0 133.3 0 100C0 66.7 0 33.3 0 16.7L0 0Z" fill="#f67b4d"></path><path d="M103 0L96.7 16.7C90.3 33.3 77.7 66.7 77.3 100C77 133.3 89 166.7 93.8 200C98.7 233.3 96.3 266.7 90.3 300C84.3 333.3 74.7 366.7 75 400C75.3 433.3 85.7 466.7 87 500C88.3 533.3 80.7 566.7 76.8 583.3L73 600L0 600L0 583.3C0 566.7 0 533.3 0 500C0 466.7 0 433.3 0 400C0 366.7 0 333.3 0 300C0 266.7 0 233.3 0 200C0 166.7 0 133.3 0 100C0 66.7 0 33.3 0 16.7L0 0Z" fill="#f46434"></path></svg>