<svg id="visual" viewBox="0 0 960 540" width="960" height="540" xmlns="http://www.w3.org/2000/svg" xmlns:xlink="http://www.w3.org/1999/xlink" version="1.1"><rect x="0" y="0" width="960" height="540" fill="#FFFFFF"></rect><path d="M0 373L137 351L274 390L411 328L549 372L686 356L823 396L960 361L960 541L823 541L686 541L549 541L411 541L274 541L137 541L0 541Z" fill="#f9ac6d"></path><path d="M0 357L137 390L274 429L411 410L549 404L686 406L823 405L960 407L960 541L823 541L686 541L549 541L411 541L274 541L137 541L0 541Z" fill="#e99454"></path><path d="M0 455L137 419L274 424L411 411L549 412L686 440L823 417L960 454L960 541L823 541L686 541L549 541L411 541L274 541L137 541L0 541Z" fill="#d97b3d"></path><path d="M0 474L137 461L274 478L411 441L549 457L686 475L823 448L960 444L960 541L823 541L686 541L549 541L411 541L274 541L137 541L0 541Z" fill="#c96326"></path><path d="M0 508L137 477L274 503L411 508L549 505L686 498L823 493L960 499L960 541L823 541L686 541L549 541L411 541L274 541L137 541L0 541Z" fill="#b9490e"></path></svg>